<?xml version="1.0" standalone="no"?>
<!DOCTYPE svg PUBLIC "-//W3C//DTD SVG 20010904//EN"
 "http://www.w3.org/TR/2001/REC-SVG-20010904/DTD/svg10.dtd">
<svg version="1.0" xmlns="http://www.w3.org/2000/svg"
 width="700.000000pt" height="700.000000pt" viewBox="0 0 700.000000 700.000000"
 preserveAspectRatio="xMidYMid meet">
<metadata>
Created by potrace 1.14, written by Peter Selinger 2001-2017
</metadata>
<g transform="translate(0.000000,700.000000) scale(0.100000,-0.100000)"
fill="#000000" stroke="none">
<path d="M3245 6990 c-665 -60 -1271 -287 -1785 -670 -771 -575 -1254 -1397
-1382 -2352 -26 -196 -31 -620 -10 -803 96 -807 417 -1489 967 -2054 532 -545
1202 -894 1940 -1010 269 -42 597 -53 858 -30 1101 98 2089 718 2667 1674 268
444 436 967 481 1493 24 292 1 696 -56 977 -117 574 -374 1106 -750 1550 -111
131 -324 342 -451 447 -506 417 -1129 682 -1794 764 -149 18 -544 26 -685 14z
m575 -2078 c126 -30 203 -57 325 -117 379 -184 666 -547 756 -955 104 -479
-37 -968 -380 -1311 -549 -549 -1438 -552 -1989 -7 -202 200 -337 445 -398
728 -26 120 -27 429 -1 549 59 271 178 504 354 691 218 232 491 379 808 435
116 21 411 13 525 -13z"/>
</g>
</svg>
